HIERARCHY
ROOT Hips
{
	OFFSET 0.000000 0.000000 0.000000
	CHANNELS 6 Xposition Yposition Zposition Zrotation Yrotation Xrotation 
	JOINT LHipJoint
	{
		OFFSET 0.000000 0.000000 0.000000
		CHANNELS 3 Zrotation Yrotation Xrotation
		JOINT LeftUpLeg
		{
			OFFSET 1.363060 -1.794630 0.839290
			CHANNELS 3 Zrotation Yrotation Xrotation
			JOINT LeftLeg
			{
				OFFSET 2.448110 -6.726130 0.000000
				CHANNELS 3 Zrotation Yrotation Xrotation
				JOINT LeftFoot
				{
					OFFSET 2.562200 -7.039590 0.000000
					CHANNELS 3 Zrotation Yrotation Xrotation
					JOINT LeftToeBase
					{
						OFFSET 0.157640 -0.433110 2.322550
						CHANNELS 3 Zrotation Yrotation Xrotation
						End Site
						{
							OFFSET 0.000000 0.000000 0.000000
						}
					}
				}
			}
		}
	}
	JOINT RHipJoint
	{
		OFFSET 0.000000 0.000000 0.000000
		CHANNELS 3 Zrotation Yrotation Xrotation
		JOINT RightUpLeg
		{
			OFFSET -1.305520 -1.794630 0.839290
			CHANNELS 3 Zrotation Yrotation Xrotation
			JOINT RightLeg
			{
				OFFSET -2.542530 -6.985550 0.000000
				CHANNELS 3 Zrotation Yrotation Xrotation
				JOINT RightFoot
				{
					OFFSET -2.568260 -7.056230 0.000000
					CHANNELS 3 Zrotation Yrotation Xrotation
					JOINT RightToeBase
					{
						OFFSET -0.164730 -0.452590 2.363150
						CHANNELS 3 Zrotation Yrotation Xrotation
						End Site
						{
							OFFSET 0.000000 0.000000 0.000000
						}
					}
				}
			}
		}
	}
}
MOTION
Frames: 14
Frame Time: 0.008333
2.256572 15.592068 -0.684385 153.758684 -83.510718 -114.430927 -8.558900 -3.400085 0.803824 -4.398775 -5.152444 -80.813240 1.733570 4.715243 71.683554 4.428657 22.639545 1.970210 4.982300 0.000001 -43.477999 8.362659 1.553329 1.544022 9.184425 9.301040 -70.162516 0.688409 -4.231239 59.315191 -3.487366 -7.916370 -26.637171 2.653100 0.000000 -44.818200
2.243791 15.641503 -0.713863 152.965766 -83.307585 -114.355025 -8.517916 -3.435458 0.789093 -4.538148 -5.205811 -80.691124 1.823304 4.695853 72.226944 4.452125 23.179771 4.245510 5.922099 0.000000 -41.999100 8.433986 1.537741 1.478444 9.188377 8.952705 -68.938305 0.734315 -4.158731 58.653984 -3.440440 -7.816905 -26.467638 2.606800 0.000000 -45.093000
2.230714 15.690875 -0.742817 151.873080 -83.143231 -113.945542 -8.469230 -3.465474 0.785967 -4.718146 -5.265151 -80.695356 1.895767 4.683044 72.734278 4.445134 23.519889 6.563015 6.840200 0.000000 -40.511500 8.508527 1.518014 1.413437 9.193363 8.553186 -67.762606 0.785413 -4.091496 57.972484 -3.390399 -7.699633 -26.284295 2.553900 -0.000000 -45.393300
2.217614 15.739960 -0.771087 150.471492 -83.025388 -113.184570 -8.413033 -3.491205 0.797224 -4.925134 -5.338493 -80.847936 1.953549 4.678184 73.209204 4.405385 23.627009 8.880630 7.685400 -0.000000 -39.183500 8.584439 1.494156 1.347415 9.205729 8.101844 -66.645270 0.842642 -4.029581 57.270969 -3.338040 -7.565133 -26.091432 2.495700 -0.000000 -45.671400
2.204718 15.788569 -0.798705 148.755929 -82.957029 -112.058439 -8.348398 -3.513117 0.822956 -5.153629 -5.430546 -81.169975 1.999862 4.683619 73.660592 4.333333 23.483357 11.143371 8.404600 -0.000000 -38.030900 8.661011 1.467003 1.279758 9.227600 7.602508 -65.594877 0.905734 -3.972579 56.549606 -3.284183 -7.417492 -25.886317 2.432700 0.000001 -45.965600
2.192519 15.836538 -0.825588 146.717387 -82.940275 -110.554246 -8.274618 -3.531892 0.861931 -5.399149 -5.543969 -81.678578 2.038384 4.701900 74.097277 4.231346 23.085583 13.294182 8.952799 -0.000000 -37.011600 8.737033 1.437553 1.208910 9.263715 7.060031 -64.616754 0.974707 -3.920103 55.809176 -3.229845 -7.260875 -25.669654 2.366000 0.000001 -46.265900
2.181354 15.883698 -0.851658 144.336257 -82.975020 -108.646649 -8.190029 -3.548867 0.914097 -5.653883 -5.686634 -82.383734 2.071949 4.732482 74.515916 4.106398 22.469605 15.335829 9.328701 -0.000000 -36.513200 8.811363 1.407219 1.132636 9.318338 6.478766 -63.714762 1.049875 -3.871836 55.051865 -3.175876 -7.097715 -25.445963 2.297201 -0.000000 -46.519000
2.171679 15.929899 -0.876898 141.603076 -83.056225 -106.323299 -8.092647 -3.563621 0.976103 -5.919487 -5.858897 -83.291617 2.102535 4.776726 74.916174 3.964424 21.669765 17.234372 9.527400 0.000000 -36.459600 8.883892 1.378124 1.049952 9.391854 5.868624 -62.890609 1.130250 -3.827098 54.280556 -3.123327 -6.934290 -25.214031 2.227400 0.000000 -46.736100
2.163866 15.974966 -0.901369 138.502561 -83.176284 -103.566744 -7.980052 -3.575365 1.045618 -6.194997 -6.065190 -84.400836 2.130630 4.833712 75.285597 3.813138 20.741905 18.990743 9.573700 0.000000 -36.954800 8.954660 1.352997 0.959581 9.483194 5.239555 -62.145267 1.214811 -3.785321 53.499919 -3.073265 -6.776186 -24.975593 2.158100 0.000000 -46.896901
2.158407 16.018758 -0.925159 135.026171 -83.324929 -100.368894 -7.850388 -3.581359 1.119112 -6.482636 -6.305933 -85.704674 2.155863 4.903402 75.608174 3.657233 19.727714 20.581115 9.485100 0.000000 -37.804400 9.024374 1.335027 0.861042 9.589069 4.604092 -61.478424 1.301638 -3.745777 52.714611 -3.026945 -6.631891 -24.727591 2.090300 -0.000000 -47.045800
2.155534 16.061084 -0.948367 131.166407 -83.489452 -96.720942 -7.701736 -3.578372 1.196267 -6.777996 -6.590277 -87.188499 2.175684 4.982172 75.850610 3.503775 18.691415 22.034335 9.309900 -0.000000 -39.171100 9.093615 1.327879 0.753585 9.704328 3.972520 -60.890838 1.389145 -3.708008 51.932313 -2.985459 -6.506659 -24.473564 2.025600 0.000000 -47.141801
2.155428 16.101761 -0.971114 126.928451 -83.655100 -92.626236 -7.534018 -3.560994 1.277336 -7.076886 -6.926658 -88.835452 2.187006 5.067373 75.976273 3.355767 17.671091 23.350635 9.077400 -0.000000 -40.921700 9.162918 1.335224 0.637228 9.822004 3.355040 -60.384400 1.475251 -3.671512 51.160820 -2.949831 -6.406422 -24.213576 1.964900 0.000000 -47.200200
2.158265 16.140643 -0.993550 122.338166 -83.805629 -88.110993 -7.348811 -3.522973 1.364137 -7.371400 -7.324858 -90.624718 2.185906 5.155906 75.942042 3.213934 16.689869 24.532076 8.810300 0.000000 -42.941700 9.232306 1.360618 0.512388 9.933979 2.761054 -59.962113 1.557693 -3.635899 50.409168 -2.921253 -6.336961 -23.949264 1.909000 0.000000 -47.223300
2.163947 16.177480 -1.015824 117.454221 -83.924225 -83.231447 -7.150543 -3.457316 1.460221 -7.651260 -7.795317 -92.535365 2.168382 5.245377 75.703695 3.075675 15.746722 25.566025 8.514300 0.000000 -44.935000 9.300725 1.406590 0.380137 10.031320 2.198120 -59.629310 1.634411 -3.600956 49.686946 -2.900709 -6.302097 -23.683248 1.858600 0.000000 -47.209400
